<?xml version="1.0" encoding="UTF-8"?>
<svg id="Layer_1" data-name="Layer 1" xmlns="http://www.w3.org/2000/svg" viewBox="0 0 438.6 317.39">
  <defs>
    <style>
      .cls-1 {
      fill: #b9995e0f;
      }
    </style>
  </defs>
  <path class="cls-1" d="M202.26,96.01c0-4.63-.19-6.79-3.49-5.92-11.69,3.08-21.74,6.2-32.7,8.5-4.16.87-8.42,1.64-12.54,2.4-2.09.37-4.26.75-6.37,1.16h-.01c-1.43.24-2.89.47-4.41.69-.93.13-1.86.25-2.82.41l-2.67.41c-.07.01-.15.03-.22.03-6.75,1.36-19.14,3.23-35.89,3.23s-29.89-2-37.97-3.54l-.83-.13c-.94-.16-1.87-.28-2.8-.41-1.52-.22-2.99-.46-4.42-.69h-.02c-2.11-.41-4.27-.8-6.35-1.16-4.13-.77-8.4-1.53-12.56-2.4-10.96-2.3-21-5.42-32.69-8.5C.2,89.22,0,91.39,0,96.01c0,5.05-.03,12.93.01,17.67-.09,4.44,1.67,6.41,5.91,7.49,8.95,2.48,18.02,4.66,27,6.48,4.44.93,9.18,1.83,14.46,2.71.15.01.31.06.47.07,2.46.46,4.98.83,7.38,1.18,1.61.24,3.24.46,4.88.72.32.04.62.18.84.3.06.04.1.06.16.1l2,.97-1.89,1.21c-.85.55-1.68,1.09-2.51,1.64-1.74,1.12-3.43,2.24-5.16,3.35-.52.34-1,.65-1.52.97-5.66,3.6-11.47,6.84-16.98,9.86-.94.53-1.81,1.09-2.59,1.68l-2.2,1.71c-3.14,2.42-2.76,7.28.74,9.18l16.14,8.77c3.07,1.68,6.76,1.67,9.8-.04,1.83-1.03,3.68-2.11,5.53-3.21,6.12-3.67,12.26-7.68,18.55-12.11,1-.71,2.02-1.44,3.07-2.18.32-.27.72-.52,1.36-.93l1.92-1.18v7.77c0,1.13,0,2.27-.02,3.38-.01,1.33-.01,3.55-.01,6.19,0,7.35,0,17.95.03,21.75v.03c0,2.08,1.18,3.98,2.99,5l9.15,4.98c.5.28,1.05.41,1.61.46.54-.04,1.11-.18,1.61-.46l9.14-4.98c1.83-1.02,2.99-2.92,2.99-5v-.03c.03-3.8.03-14.4.03-21.75,0-2.64,0-4.86-.02-6.19-.01-1.11-.01-2.24-.01-3.38v-7.77l1.93,1.18c.63.41,1.02.66,1.36.93,1.03.74,2.05,1.47,3.07,2.18,6.28,4.44,12.44,8.45,18.54,12.11,1.86,1.11,3.7,2.18,5.54,3.21,3.04,1.71,6.74,1.72,9.79.04l16.14-8.77c3.49-1.9,3.88-6.77.74-9.18l-2.2-1.71c-.78-.59-1.64-1.15-2.58-1.68-5.53-3.02-11.33-6.26-16.99-9.86-.5-.32-1-.63-1.52-.97-1.72-1.11-3.42-2.23-5.16-3.35-.83-.54-1.65-1.09-2.49-1.64l-1.9-1.21,2-.97c.06-.04.1-.06.16-.1.24-.12.52-.25.84-.3,1.65-.27,3.27-.49,4.88-.72,2.4-.35,4.94-.72,7.38-1.18.16-.01.32-.06.49-.07,5.28-.88,10.01-1.78,14.46-2.71,8.96-1.83,18.05-4.01,26.99-6.48,4.24-1.08,6.01-3.05,5.91-7.49.04-4.75.02-12.62.02-17.67Z"/>
  <path class="cls-1" d="M236.34,105.95c0,4.63.19,6.79,3.49,5.92,11.69-3.08,21.74-6.2,32.7-8.5,4.16-.87,8.42-1.64,12.54-2.4,2.09-.37,4.26-.75,6.37-1.16h.01c1.43-.24,2.89-.47,4.41-.69.93-.13,1.86-.25,2.82-.41l2.67-.41c.07-.01.15-.03.22-.03,6.75-1.36,19.14-3.23,35.89-3.23s29.89,2,37.97,3.54l.83.13c.94.16,1.87.28,2.8.41,1.52.22,2.99.46,4.42.69h.02c2.11.41,4.27.8,6.35,1.16,4.13.77,8.4,1.53,12.56,2.4,10.96,2.3,21,5.42,32.69,8.5,3.32.87,3.51-1.3,3.51-5.92,0-5.05.03-12.93-.01-17.67.09-4.44-1.67-6.41-5.91-7.49-8.95-2.48-18.02-4.66-27-6.48-4.44-.93-9.18-1.83-14.46-2.71-.15-.01-.31-.06-.47-.07-2.46-.46-4.98-.83-7.38-1.18-1.61-.24-3.24-.46-4.88-.72-.32-.04-.62-.18-.84-.3-.06-.04-.1-.06-.16-.1l-2-.97,1.89-1.21c.85-.55,1.68-1.09,2.51-1.64,1.74-1.12,3.43-2.24,5.16-3.35.52-.34,1-.65,1.52-.97,5.66-3.6,11.47-6.84,16.98-9.86.94-.53,1.81-1.09,2.59-1.68l2.2-1.71c3.14-2.42,2.76-7.28-.74-9.18l-16.14-8.77c-3.07-1.68-6.76-1.67-9.8.04-1.83,1.03-3.68,2.11-5.53,3.21-6.12,3.67-12.26,7.68-18.55,12.11-1,.71-2.02,1.44-3.07,2.18-.32.27-.72.52-1.36.93l-1.92,1.18v-7.77c0-1.13,0-2.27.02-3.38.01-1.33.01-3.55.01-6.19,0-7.35,0-17.95-.03-21.75v-.03c0-2.08-1.18-3.98-2.99-5l-9.15-4.98c-.5-.28-1.05-.41-1.61-.46-.54.04-1.11.18-1.61.46l-9.14,4.98c-1.83,1.02-2.99,2.92-2.99,5v.03c-.03,3.8-.03,14.4-.03,21.75,0,2.64,0,4.86.02,6.19.01,1.11.01,2.24.01,3.38v7.77l-1.93-1.18c-.63-.41-1.02-.66-1.36-.93-1.03-.74-2.05-1.47-3.07-2.18-6.28-4.44-12.44-8.45-18.54-12.11-1.86-1.11-3.7-2.18-5.54-3.21-3.04-1.71-6.74-1.72-9.79-.04l-16.14,8.77c-3.49,1.9-3.88,6.77-.74,9.18l2.2,1.71c.78.59,1.64,1.15,2.58,1.68,5.53,3.02,11.33,6.26,16.99,9.86.5.32,1,.63,1.52.97,1.72,1.11,3.42,2.23,5.16,3.35.83.54,1.65,1.09,2.49,1.64l1.9,1.21-2,.97c-.06.04-.1.06-.16.1-.24.12-.52.25-.84.3-1.65.27-3.27.49-4.88.72-2.4.35-4.94.72-7.38,1.18-.16.01-.32.06-.49.07-5.28.88-10.01,1.78-14.46,2.71-8.96,1.83-18.05,4.01-26.99,6.48-4.24,1.08-6.01,3.05-5.91,7.49-.04,4.75-.02,12.62-.02,17.67Z"/>
  <path class="cls-1" d="M202.26,211.44c0-4.63-.19-6.79-3.49-5.92-11.69,3.08-21.74,6.2-32.7,8.5-4.16.87-8.42,1.64-12.54,2.4-2.09.37-4.26.75-6.37,1.16h-.01c-1.43.24-2.89.47-4.41.69-.93.13-1.86.25-2.82.41l-2.67.41c-.07.01-.15.03-.22.03-6.75,1.36-19.14,3.23-35.89,3.23s-29.89-2-37.97-3.54l-.83-.13c-.94-.16-1.87-.28-2.8-.41-1.52-.22-2.99-.46-4.42-.69h-.02c-2.11-.41-4.27-.8-6.35-1.16-4.13-.77-8.4-1.53-12.56-2.4-10.96-2.3-21-5.42-32.69-8.5-3.32-.87-3.51,1.3-3.51,5.92,0,5.05-.03,12.93.01,17.67-.09,4.44,1.67,6.41,5.91,7.49,8.95,2.48,18.02,4.66,27,6.48,4.44.93,9.18,1.83,14.46,2.71.15.01.31.06.47.07,2.46.46,4.98.83,7.38,1.18,1.61.24,3.24.46,4.88.72.32.04.62.18.84.3.06.04.1.06.16.1l2,.97-1.89,1.21c-.85.55-1.68,1.09-2.51,1.64-1.74,1.12-3.43,2.24-5.16,3.35-.52.34-1,.65-1.52.97-5.66,3.6-11.47,6.84-16.98,9.86-.94.53-1.81,1.09-2.59,1.68l-2.2,1.71c-3.14,2.42-2.76,7.28.74,9.18l16.14,8.77c3.07,1.68,6.76,1.67,9.8-.04,1.83-1.03,3.68-2.11,5.53-3.21,6.12-3.67,12.26-7.68,18.55-12.11,1-.71,2.02-1.44,3.07-2.18.32-.27.72-.52,1.36-.93l1.92-1.18v7.77c0,1.13,0,2.27-.02,3.38-.01,1.33-.01,3.55-.01,6.19,0,7.35,0,17.95.03,21.75v.03c0,2.08,1.18,3.98,2.99,5l9.15,4.98c.5.28,1.05.41,1.61.46.54-.04,1.11-.18,1.61-.46l9.14-4.98c1.83-1.02,2.99-2.92,2.99-5v-.03c.03-3.8.03-14.4.03-21.75,0-2.64,0-4.86-.02-6.19-.01-1.11-.01-2.24-.01-3.38v-7.77l1.93,1.18c.63.41,1.02.66,1.36.93,1.03.74,2.05,1.47,3.07,2.18,6.28,4.44,12.44,8.45,18.54,12.11,1.86,1.11,3.7,2.18,5.54,3.21,3.04,1.71,6.74,1.72,9.79.04l16.14-8.77c3.49-1.9,3.88-6.77.74-9.18l-2.2-1.71c-.78-.59-1.64-1.15-2.58-1.68-5.53-3.02-11.33-6.26-16.99-9.86-.5-.32-1-.63-1.52-.97-1.72-1.11-3.42-2.23-5.16-3.35-.83-.54-1.65-1.09-2.49-1.64l-1.9-1.21,2-.97c.06-.04.1-.06.16-.1.24-.12.52-.25.84-.3,1.65-.27,3.27-.49,4.88-.72,2.4-.35,4.94-.72,7.38-1.18.16-.01.32-.06.49-.07,5.28-.88,10.01-1.78,14.46-2.71,8.96-1.83,18.05-4.01,26.99-6.48,4.24-1.08,6.01-3.05,5.91-7.49.04-4.75.02-12.62.02-17.67Z"/>
  <path class="cls-1" d="M236.34,221.38c0,4.63.19,6.79,3.49,5.92,11.69-3.08,21.74-6.2,32.7-8.5,4.16-.87,8.42-1.64,12.54-2.4,2.09-.37,4.26-.75,6.37-1.16h.01c1.43-.24,2.89-.47,4.41-.69.93-.13,1.86-.25,2.82-.41l2.67-.41c.07-.01.15-.03.22-.03,6.75-1.36,19.14-3.23,35.89-3.23s29.89,2,37.97,3.54l.83.13c.94.16,1.87.28,2.8.41,1.52.22,2.99.46,4.42.69h.02c2.11.41,4.27.8,6.35,1.16,4.13.77,8.4,1.53,12.56,2.4,10.96,2.3,21,5.42,32.69,8.5,3.32.87,3.51-1.3,3.51-5.92,0-5.05.03-12.93-.01-17.67.09-4.44-1.67-6.41-5.91-7.49-8.95-2.48-18.02-4.66-27-6.48-4.44-.93-9.18-1.83-14.46-2.71-.15-.01-.31-.06-.47-.07-2.46-.46-4.98-.83-7.38-1.18-1.61-.24-3.24-.46-4.88-.72-.32-.04-.62-.18-.84-.3-.06-.04-.1-.06-.16-.1l-2-.97,1.89-1.21c.85-.55,1.68-1.09,2.51-1.64,1.74-1.12,3.43-2.24,5.16-3.35.52-.34,1-.65,1.52-.97,5.66-3.6,11.47-6.84,16.98-9.86.94-.53,1.81-1.09,2.59-1.68l2.2-1.71c3.14-2.42,2.76-7.28-.74-9.18l-16.14-8.77c-3.07-1.68-6.76-1.67-9.8.04-1.83,1.03-3.68,2.11-5.53,3.21-6.12,3.67-12.26,7.68-18.55,12.11-1,.71-2.02,1.44-3.07,2.18-.32.27-.72.52-1.36.93l-1.92,1.18v-7.77c0-1.13,0-2.27.02-3.38.01-1.33.01-3.55.01-6.19,0-7.35,0-17.95-.03-21.75v-.03c0-2.08-1.18-3.98-2.99-5l-9.15-4.98c-.5-.28-1.05-.41-1.61-.46-.54.04-1.11.18-1.61.46l-9.14,4.98c-1.83,1.02-2.99,2.92-2.99,5v.03c-.03,3.8-.03,14.4-.03,21.75,0,2.64,0,4.86.02,6.19.01,1.11.01,2.24.01,3.38v7.77l-1.93-1.18c-.63-.41-1.02-.66-1.36-.93-1.03-.74-2.05-1.47-3.07-2.18-6.28-4.44-12.44-8.45-18.54-12.11-1.86-1.11-3.7-2.18-5.54-3.21-3.04-1.71-6.74-1.72-9.79-.04l-16.14,8.77c-3.49,1.9-3.88,6.77-.74,9.18l2.2,1.71c.78.59,1.64,1.15,2.58,1.68,5.53,3.02,11.33,6.26,16.99,9.86.5.32,1,.63,1.52.97,1.72,1.11,3.42,2.23,5.16,3.35.83.54,1.65,1.09,2.49,1.64l1.9,1.21-2,.97c-.06.04-.1.06-.16.1-.24.12-.52.25-.84.3-1.65.27-3.27.49-4.88.72-2.4.35-4.94.72-7.38,1.18-.16.01-.32.06-.49.07-5.28.88-10.01,1.78-14.46,2.71-8.96,1.83-18.05,4.01-26.99,6.48-4.24,1.08-6.01,3.05-5.91,7.49-.04,4.75-.02,12.62-.02,17.67Z"/>
  <path class="cls-1" d="M201.07,55.9c0,2.41-1.49,4.56-3.75,5.39-10.48,3.85-43,13.84-98.19,13.84-49.23,0-83.04-10.09-94.04-13.9-2.32-.8-3.89-2.98-3.89-5.44v-22.3c0-3.88,3.74-6.65,7.44-5.5,13.99,4.35,46.8,12.8,90.78,12.8s79.46-8.81,94.32-13.07c3.68-1.06,7.33,1.71,7.33,5.53v22.65Z"/>
  <path class="cls-1" d="M237.53,256.77c0-2.41,1.49-4.56,3.75-5.39,10.48-3.85,43-13.84,98.19-13.84,49.23,0,83.04,10.09,94.04,13.9,2.32.8,3.89,2.98,3.89,5.44v22.3c0,3.88-3.74,6.65-7.44,5.5-13.99-4.35-46.8-12.8-90.78-12.8s-79.46,8.81-94.32,13.07c-3.68,1.06-7.33-1.71-7.33-5.53v-22.65Z"/>
</svg>